<?xml version="1.0" encoding="UTF-8" standalone="no"?>
<svg
   width="250"
   height="128"
   version="1.1"
   id="svg2"
   viewBox="0 0 250 128"
   xmlns:xlink="http://www.w3.org/1999/xlink"
   xmlns="http://www.w3.org/2000/svg"
   xmlns:svg="http://www.w3.org/2000/svg"
   xmlns:rdf="http://www.w3.org/1999/02/22-rdf-syntax-ns#"
   xmlns:cc="http://creativecommons.org/ns#"
   xmlns:dc="http://purl.org/dc/elements/1.1/">
  <defs
     id="defs2">
    <linearGradient
       id="linearGradient429">
      <stop
         style="stop-color:#d7b0ff;stop-opacity:1;"
         offset="0"
         id="stop1" />
      <stop
         style="stop-color:#ff5151;stop-opacity:1;"
         offset="1"
         id="stop431" />
    </linearGradient>
    <filter
       y="-0.6383068"
       width="1.481023"
       height="2.2195168"
       x="-0.24787349"
       style="color-interpolation-filters:sRGB"
       id="filter214">
      <feMorphology
         result="result1"
         radius="2.3748779296875"
         operator="dilate"
         id="feMorphology210" />
      <feTurbulence
         baseFrequency="0.15896208530805686 0.028000000000000001"
         numOctaves="8"
         id="feTurbulence210"
         seed="525"
         type="turbulence" />
      <feColorMatrix
         result="result2"
         values="90.659999999999997"
         id="feColorMatrix210"
         type="hueRotate" />
      <feDisplacementMap
         result="result4"
         scale="17.382812"
         yChannelSelector="G"
         xChannelSelector="R"
         in="result1"
         in2="result2"
         id="feDisplacementMap210" />
      <feFlood
         result="result3"
         flood-opacity="1"
         flood-color="rgb(156,17,17)"
         id="feFlood210" />
      <feMorphology
         radius="1.9372558593749998"
         result="result7"
         in="result4"
         id="feMorphology211"
         operator="erode" />
      <feGaussianBlur
         result="result7"
         in="result7"
         stdDeviation="24.707494075829384"
         id="feGaussianBlur211" />
      <feComposite
         result="result5"
         in2="result4"
         in="result3"
         operator="in"
         id="feComposite211" />
      <feComposite
         operator="out"
         in2="result7"
         id="feComposite212" />
      <feOffset
         result="result6"
         dy="-7"
         dx="-4.5"
         id="feOffset212" />
      <feGaussianBlur
         result="result7"
         stdDeviation="4.8"
         id="feGaussianBlur212" />
      <feComposite
         in="SourceGraphic"
         in2="result6"
         id="feComposite213" />
      <feComposite
         in2="result7"
         id="feComposite214" />
    </filter>
    <filter
       style="color-interpolation-filters:sRGB"
       id="filter424"
       x="-0.046560402"
       y="-0.079237026"
       width="1.0945403"
       height="1.2365481">
      <feFlood
         result="flood"
         in="SourceGraphic"
         flood-opacity="0.498039"
         flood-color="rgb(0,0,0)"
         id="feFlood423" />
      <feGaussianBlur
         result="blur"
         in="SourceGraphic"
         stdDeviation="4.100000"
         id="feGaussianBlur423" />
      <feOffset
         result="offset"
         in="blur"
         dx="0.300000"
         dy="9.695574"
         id="feOffset423" />
      <feComposite
         result="comp1"
         operator="in"
         in="flood"
         in2="offset"
         id="feComposite423" />
      <feComposite
         result="comp2"
         operator="over"
         in="SourceGraphic"
         in2="comp1"
         id="feComposite424" />
    </filter>
    <filter
       style="color-interpolation-filters:sRGB"
       id="filter426"
       x="-0.038670869"
       y="-0.040032545"
       width="1.0785207"
       height="1.1195101">
      <feFlood
         result="flood"
         in="SourceGraphic"
         flood-opacity="0.498039"
         flood-color="rgb(0,0,0)"
         id="feFlood424" />
      <feGaussianBlur
         result="blur"
         in="SourceGraphic"
         stdDeviation="4.100000"
         id="feGaussianBlur424" />
      <feOffset
         result="offset"
         in="blur"
         dx="0.300000"
         dy="9.695574"
         id="feOffset424" />
      <feComposite
         result="comp1"
         operator="in"
         in="flood"
         in2="offset"
         id="feComposite425" />
      <feComposite
         result="comp2"
         operator="over"
         in="SourceGraphic"
         in2="comp1"
         id="feComposite426" />
    </filter>
    <linearGradient
       xlink:href="#linearGradient429"
       id="linearGradient430"
       x1="106.97831"
       y1="-55.059242"
       x2="393.02139"
       y2="311.05923"
       gradientUnits="userSpaceOnUse" />
    <filter
       style="color-interpolation-filters:sRGB"
       id="filter437"
       x="-0.032752617"
       y="-0.069608725"
       width="1.0661509"
       height="1.1835683">
      <feFlood
         result="flood"
         in="SourceGraphic"
         flood-opacity="0.498039"
         flood-color="rgb(0,0,0)"
         id="feFlood436" />
      <feGaussianBlur
         result="blur"
         in="SourceGraphic"
         stdDeviation="6.340511"
         id="feGaussianBlur436" />
      <feOffset
         result="offset"
         in="blur"
         dx="0.300000"
         dy="9.695574"
         id="feOffset436" />
      <feComposite
         result="comp1"
         operator="in"
         in="flood"
         in2="offset"
         id="feComposite436" />
      <feComposite
         result="comp2"
         operator="over"
         in="SourceGraphic"
         in2="comp1"
         id="feComposite437" />
    </filter>
  </defs>
  <title
     id="title1">WayVR logo</title>
  <rect
     style="opacity:1;fill:url(#linearGradient430);fill-opacity:1;stroke:none;stroke-width:1.03138;stroke-linejoin:round;stroke-dasharray:none;stroke-dashoffset:6.61419;stroke-opacity:1;filter:url(#filter437)"
     id="rect4"
     width="464.61099"
     height="218.6109"
     x="17.694351"
     y="18.69455"
     rx="73.859177"
     ry="73.859177"
     transform="matrix(0.51136724,0,0,0.51136724,-2.4148087,-3.2855337)" />
  <g
     transform="matrix(0.35214273,0,0,0.35214273,-55.996195,-97.604378)"
     id="g2"
     style="filter:url(#filter426)">
    <circle
       cx="341.39999"
       cy="465.20001"
       r="122.9"
       style="fill:none;fill-opacity:1"
       id="circle1" />
    <g
       transform="scale(0.9156,1.092)"
       style="fill:#ffffff"
       id="g1">
      <path
         d="m 443.9,314.6 h 2.35 l -1.495,1.495 h -0.8544 V 314.6 m -173,3.631 v 1.709 l -5.554,6.836 h -0.8544 l -0.8544,-5.34 c 3.275,-2.136 5.696,-3.204 7.263,-3.204 m 202.5,2.35 c 4.842,1.9e-4 7.547,3.062 8.117,9.185 l -4.059,28.84 h 1.495 l 3.204,-2.136 h 0.8544 v 0.6408 c -4.415,2.706 -8.687,10.11 -12.82,22.22 -1.567,10.4 -4.201,20.01 -7.904,28.84 -3.276,9.114 -4.913,17.52 -4.913,25.21 l -6.195,15.17 c -1.7e-4,1.282 2.35,2.563 7.049,3.845 -0.8546,2.991 -2.136,4.486 -3.845,4.486 v 0.8544 h 1.495 v 0.6408 c -1.7e-4,1.567 -2.421,2.35 -7.263,2.35 l 0.8544,0.8544 v 2.991 h -1.495 c 0.9967,2.991 3.133,4.486 6.408,4.486 v 1.495 h -6.408 v 0.8544 c 2.136,4e-5 3.204,1.282 3.204,3.845 l -8.972,2.991 0.8544,0.8544 v 0.6408 c -1.6e-4,0.9969 -1.068,1.495 -3.204,1.495 v 0.8544 c 2.706,3e-5 4.058,0.4985 4.059,1.495 -3.845,1.282 -8.901,7.619 -15.17,19.01 -6.408,10.11 -11.96,15.17 -16.66,15.17 h -1.709 c -3.56,-2.279 -6.48,-9.826 -8.758,-22.64 -9.114,-19.51 -13.67,-30.97 -13.67,-34.39 -10e-5,-8.829 -2.919,-18.23 -8.758,-28.2 -1.567,-4.415 -2.635,-9.968 -3.204,-16.66 l -3.845,-0.8544 c -9.684,14.67 -14.74,26.13 -15.17,34.39 -2.706,4.842 -4.842,10.68 -6.408,17.52 5.839,1.567 8.758,3.062 8.758,4.486 v 0.8544 c -4.557,-0.5696 -7.761,-1.638 -9.612,-3.204 -1.994,3.845 -4.628,14.53 -7.904,32.04 -2.563,8.117 -5.768,12.18 -9.612,12.18 -10.82,-3.56 -19.87,-9.399 -27.13,-17.52 -1.139,2e-5 -2.991,-4.059 -5.554,-12.18 -1.566,3e-5 -2.635,-4.059 -3.204,-12.18 -5.411,-11.53 -9.114,-24.71 -11.11,-39.52 v -22.22 h -0.8544 l -3.845,0.8544 v -0.8544 c 1e-5,-0.9967 1.282,-1.495 3.845,-1.495 l -0.8544,-12.82 v -10.04 l -6.195,-32.04 v -13.67 c 2.706,-8.544 7.405,-12.82 14.1,-12.82 h 44.86 v 1.495 c -3.56,0.1426 -5.981,0.9258 -7.263,2.35 -2.706,-1.566 -5.34,-2.35 -7.904,-2.35 h -8.758 l -4.913,0.6408 -0.8544,-0.6408 H 305.92 l -6.408,0.6408 -3.204,-0.6408 -2.35,0.6408 -2.563,-0.6408 c 10.4,11.39 16.52,21.01 18.37,28.84 h 7.263 v 1.495 h -5.554 v 1.709 c 2.136,6.551 3.703,9.826 4.699,9.826 h 1.709 l 3.845,-0.8544 0.8544,0.8544 0.8544,-0.8544 0.8544,0.8544 v 0.6408 c -2.848,1.709 -4.771,4.059 -5.767,7.049 h -0.6408 v 1.495 h 1.495 c 1.994,23.78 5.696,41.8 11.11,54.04 l 3.204,2.136 h 1.709 c 2.136,8e-5 6.622,-8.331 13.46,-24.99 4.415,-7.547 7.619,-14.17 9.612,-19.87 l -0.8544,-2.35 c 4.415,-5.554 8.972,-8.331 13.67,-8.331 h 1.495 c 2.99,1.4e-4 5.127,1.567 6.408,4.699 3.987,4.7 7.191,11.75 9.612,21.15 l 11.96,22.22 c 1.566,1.567 2.35,3.347 2.35,5.34 4.414,8.402 8.402,13.96 11.96,16.66 h 2.563 c 2.99,6e-5 6.978,-10.4 11.96,-31.19 0.8543,9e-5 3.204,-5.554 7.049,-16.66 v -0.8544 l -13.46,-1.495 -3.204,0.8544 h -4.059 v -1.709 l 8.117,-0.6408 h 15.81 c 6.123,-18.37 11.75,-32.61 16.88,-42.72 1.709,-20.79 4.058,-31.19 7.049,-31.19 l 9.612,-3.845 m -45.5,2.35 c -0.8546,1.994 -2.706,2.991 -5.554,2.991 v -1.495 l 5.554,-1.495 m -80.53,3.845 h 21.57 v 1.495 l -4.913,0.6408 -4.699,-0.6408 -4.059,1.495 -1.495,-1.495 h -6.408 v -1.495 m -112.4,2.991 h 2.35 l 1.495,1.495 v 0.8544 l -4.699,4.486 v 3.845 h -1.709 v -2.35 l 0.8544,-0.6408 v -0.8544 l -4.059,-3.845 c 0.9969,-1.994 2.919,-2.99 5.767,-2.991 m 157,9.185 h 2.35 v 0.6408 c -1.1e-4,0.997 -0.7834,1.495 -2.35,1.495 l -0.8544,0.8544 v 0.8544 l -2.35,-0.8544 v -1.495 l 3.204,-1.495 m -11.96,8.331 v 0.8544 c -1e-4,1.139 -3.418,2.35 -10.25,3.631 v -1.495 l 4.699,-2.136 0.8544,0.6408 h 0.6408 l 4.059,-1.495 m -139.5,7.69 v 0.6408 l -1.709,1.495 -0.6408,-0.6408 v -0.8544 l 0.6408,-0.6408 h 1.709 m 116.4,0 v 0.6408 c -2.991,2.279 -7.832,4.344 -14.53,6.195 v -1.495 c 1.139,1.5e-4 1.709,-0.7831 1.709,-2.35 l 12.82,-2.991 m 40.59,7.476 0.8544,0.8544 v 0.6408 l -1.495,1.709 h -0.8544 l -1.709,-1.709 v -0.6408 l 3.204,-0.8544 m 29.48,0.8544 h 0.8544 v 0.6408 l -1.495,1.709 h -0.8544 v -0.8544 l 1.495,-1.495 m -13.46,10.68 3.204,2.136 c -0.5698,1.567 -2.136,2.35 -4.699,2.35 l -1.709,-2.35 c -1.3e-4,-0.7119 1.068,-1.424 3.204,-2.136 m 19.22,9.826 0.6408,0.8544 v 0.6408 l -0.6408,0.8544 h -1.709 v -0.8544 l 1.709,-1.495 m -30.33,7.69 v 0.6408 l -4.059,3.204 h -2.35 v -0.8544 c -1.1e-4,-1.282 2.136,-2.278 6.408,-2.991 m -132.4,29.69 h 0.8544 v 0.6408 c -2.136,4.7 -3.987,7.548 -5.554,8.544 h -1.709 v -3.204 l 6.408,-5.981 m 104.5,35.67 h 0.8544 v 1.495 l -6.408,3.204 -0.8544,-0.8544 v -1.495 l 6.408,-2.35 m -87.79,10.04 h 1.495 l 2.563,8.331 h -1.709 l -2.35,-7.69 v -0.6408 m 85.44,9.826 h 0.6408 l 2.563,2.35 -0.8544,0.6408 h -0.8544 l -1.495,-2.136 V 476.73"
         id="path1" />
    </g>
  </g>
  <metadata
     id="metadata2">
    <rdf:RDF>
      <cc:Work
         rdf:about="">
        <dc:title>WayVR logo</dc:title>
      </cc:Work>
    </rdf:RDF>
  </metadata>
  <text
     xml:space="preserve"
     style="font-style:normal;font-variant:normal;font-weight:normal;font-stretch:normal;font-size:118.128px;font-family:'Fjalla One';-inkscape-font-specification:'Fjalla One, @wght=700';font-variant-ligatures:normal;font-variant-caps:normal;font-variant-numeric:normal;font-variant-east-asian:normal;font-variation-settings:'wght' 700;text-align:start;writing-mode:lr-tb;direction:ltr;text-anchor:start;opacity:1;fill:#ffffff;fill-opacity:1;stroke:none;stroke-width:1.52973;stroke-linejoin:round;stroke-dasharray:none;stroke-dashoffset:6.61419;stroke-opacity:1;filter:url(#filter424)"
     x="186.43704"
     y="185.3642"
     id="text5"
     transform="matrix(0.54419318,0,0,0.48052137,-2.4148087,-3.2855337)"><tspan
       id="tspan5"
       x="186.43704"
       y="185.3642"
       style="font-style:normal;font-variant:normal;font-weight:normal;font-stretch:normal;font-size:118.128px;font-family:'Fjalla One';-inkscape-font-specification:'Fjalla One, @wght=700';font-variant-ligatures:normal;font-variant-caps:normal;font-variant-numeric:normal;font-variant-east-asian:normal;font-variation-settings:'wght' 700;stroke-width:1.52973;stroke-dasharray:none">ayVR</tspan></text>
</svg>
